<?xml version="1.0" encoding="utf-8"?>
<!-- Generator: Adobe Illustrator 23.1.0, SVG Export Plug-In . SVG Version: 6.00 Build 0)  -->
<svg version="1.1" id="Layer_1" xmlns="http://www.w3.org/2000/svg" xmlns:xlink="http://www.w3.org/1999/xlink" x="0px" y="0px"
	 viewBox="0 0 208.9 50.2" style="enable-background:new 0 0 208.9 50.2;" xml:space="preserve">
<style type="text/css">
	.st0{fill:#231F20;}
</style>
<g>
	<g>
		<g>
			<path class="st0" d="M87.2,25.1c0-9.7-7.9-17.5-17.5-17.5c-5.5,0-10.6,2.5-14,6.9c-1.1,1.4-0.8,3.5,0.6,4.6
				c1.4,1.1,3.5,0.8,4.6-0.6c1.7-2.3,4.2-3.7,6.9-4.2c0,0,0,0,0,0c0,0,0,0,0.1,0c0.2,0,0.3,0,0.5-0.1c0.1,0,0.1,0,0.2,0
				c0.1,0,0.3,0,0.4,0c0,0,0.1,0,0.1,0c0.2,0,0.4,0,0.6,0h0c4.5,0,8.3,2.7,10,6.5c0.6,1.5,0.8,2.8,0.9,3.7c0,0.3,0,0.5,0,0.8
				c0,0.3,0,0.7-0.1,1c0,0.1,0,0.2,0,0.2c0,0.2-0.1,0.5-0.1,0.7c-0.4,2.3-1.5,4-2.3,5c-0.1,0.1-0.1,0.2-0.2,0.2
				c-0.4,0.5-0.8,0.9-1.3,1.3c-0.1,0.1-0.2,0.1-0.2,0.2c-0.2,0.2-0.4,0.3-0.6,0.5c0,0-0.1,0-0.1,0.1c-0.5,0.4-1.1,0.7-1.7,0.9
				c-0.1,0-0.2,0.1-0.3,0.1c-0.2,0.1-0.5,0.2-0.7,0.3c-0.1,0-0.2,0-0.3,0.1c-0.3,0.1-0.5,0.2-0.8,0.2c0,0-0.1,0-0.1,0
				c-0.7,0.1-1.4,0.2-2.1,0.2c-0.4,0-0.8,0-1.1-0.1c0,0-0.1,0-0.1,0c-0.3,0-0.6-0.1-0.9-0.2c-3.2-0.7-5.4-2.8-6-3.6
				c-0.2-0.2-1.8-2.3-2.9-3.8c-1.1-1.6-2.2-3.3-3.4-5c-1.5-2.3-3.1-4.6-4.7-6.9c-0.3-0.5-0.7-1-1.1-1.6c-0.1-0.2-0.2-0.3-0.3-0.4
				c-1-1.3-2-2.7-3.1-3.9C45.5,10,45,9.5,44.6,9c-0.8-0.9-0.9-0.9-0.9-1c-0.1,0-0.1,0-0.2-0.1c-0.2-0.2-0.4-0.4-0.5-0.5l-0.2-0.1
				C38.1,2.6,31.8,0,25.1,0C11.3,0,0,11.3,0,25.1C0,38.8,11.1,50,24.8,50.2v0h0.3h0h0c5.4,0,10.6-1.8,15-5c1.3-1,2.6-2.1,3.8-3.4
				l5-6.1c0.3-0.3,0.5-0.7,0.6-1.1c0.2-0.7,0.2-1.5-0.2-2.2c-0.2-0.5-0.5-0.9-0.9-1.2c-0.8-0.7-1.9-0.9-2.9-0.6
				c-0.6,0.2-1.2,0.5-1.7,1.1l-2.5,3.1l-2.4,2.9c-2.6,2.9-6.1,4.9-9.8,5.7c-0.2,0-0.3,0.1-0.5,0.1c-0.1,0-0.3,0-0.4,0.1
				c-0.2,0-0.4,0.1-0.6,0.1c-0.1,0-0.2,0-0.3,0c-0.2,0-0.4,0-0.6,0.1c0,0-0.1,0-0.1,0c-0.4,0-0.7,0.1-1.1,0.1c-0.1,0-0.2,0-0.2,0
				c-0.2,0-0.4,0-0.5,0c-0.3,0-0.5,0-0.8,0c-0.1,0-0.1,0-0.2,0c-0.3,0-0.5,0-0.8-0.1c0,0-0.1,0-0.1,0c-0.3,0-0.5-0.1-0.8-0.1
				c-0.1,0-0.2,0-0.3,0c-0.2,0-0.4-0.1-0.6-0.1c-0.1,0-0.1,0-0.2,0c-0.3-0.1-0.5-0.1-0.8-0.2c0,0,0,0,0,0c-2.9-0.8-5.5-2.3-7.7-4.3
				c0,0,0,0,0,0c-0.2-0.2-0.4-0.4-0.6-0.6c0,0,0,0-0.1-0.1c-0.1-0.1-0.3-0.3-0.4-0.4c-0.8-0.9-2-2.4-3-4.4c0,0,0,0,0-0.1
				c-0.2-0.4-0.3-0.7-0.5-1.1c-0.1-0.2-0.2-0.4-0.3-0.7c0,0,0-0.1,0-0.1c-0.1-0.3-0.2-0.5-0.3-0.8c0,0,0,0,0,0
				c0-0.1-0.1-0.3-0.1-0.4c-0.1-0.3-0.2-0.6-0.2-0.9c0-0.1,0-0.2-0.1-0.3c-0.1-0.4-0.1-0.7-0.2-1.1c0-0.1,0-0.2,0-0.2
				c0-0.3-0.1-0.6-0.1-1c0-0.1,0-0.2,0-0.3c0-0.4,0-0.8,0-1.2c0-6.4,3.3-12.1,8.2-15.4c3-2,6.5-3.2,10.4-3.2c2.1,0,4.1,0.3,6.1,1
				c2.2,0.8,4.2,1.9,6,3.5c0.3,0.3,0.7,0.6,1,0.9c0,0,0,0,0.1,0c0.1,0.1,0.2,0.2,0.3,0.3c0.2,0.2,0.4,0.4,0.7,0.7
				c0.2,0.2,0.3,0.4,0.5,0.6c0.3,0.3,0.6,0.7,1,1.1c0.5,0.7,1.1,1.3,1.6,2c0.1,0.1,0.1,0.2,0.2,0.3c1.1,1.4,2.1,2.8,3.1,4.3
				c0,0,0,0.1,0.1,0.1c0.5,0.7,1,1.5,1.5,2.2l0,0c0.8,1.1,1.5,2.3,2.3,3.4c1.1,1.7,2.3,3.4,3.4,5.1c1.2,1.7,3,4,3.3,4.4
				c3.3,3.9,8.2,6.1,13.3,6.1C79.4,42.6,87.2,34.8,87.2,25.1"/>
			<path class="st0" d="M178.6,40.6c0,1.1-0.8,1.6-2.2,1.6c-1.8,0-2.5-0.8-2.5-1.8h1.5c0,0.5,0.4,0.7,1,0.7c0.4,0,0.7-0.1,0.7-0.4
				c0-0.4-0.5-0.5-1.3-0.7c-0.9-0.2-1.8-0.5-1.8-1.5c0-0.9,0.8-1.6,2.2-1.6c1.6,0,2.3,0.8,2.3,1.7H177c-0.1-0.4-0.3-0.6-0.8-0.6
				c-0.4,0-0.7,0.2-0.7,0.4c0,0.4,0.3,0.4,1.1,0.5C177.6,39.1,178.6,39.4,178.6,40.6"/>
			<polygon class="st0" points="180.5,35 180.5,38.7 182,37 183.9,37 182.1,38.9 184.1,42 182.2,42 181,40 180.5,40.6 180.5,42 
				178.9,42 178.9,35 			"/>
			<path class="st0" d="M186.5,38c-0.6,0-0.8,0.2-0.9,0.7h-1.5c0-1,0.7-1.8,2.4-1.8c1.4,0,2.2,0.5,2.2,2.1v2.3
				c0,0.3,0.1,0.4,0.3,0.4V42c-0.3,0.1-0.6,0.2-0.9,0.2c-0.7,0-0.9-0.3-0.9-0.7h0c-0.4,0.4-1,0.7-1.6,0.7c-1.1,0-1.7-0.6-1.7-1.4
				c0-1,0.7-1.5,1.9-1.7c0.7-0.1,1.3-0.2,1.3-0.6C187.1,38.1,186.9,38,186.5,38 M187.1,40.2v-0.6c-0.3,0.1-0.5,0.2-0.8,0.2
				c-0.6,0.1-0.8,0.4-0.8,0.7c0,0.4,0.2,0.6,0.6,0.6C186.8,41.1,187.1,40.7,187.1,40.2L187.1,40.2z"/>
			<path class="st0" d="M192.1,42.1c-0.4,1.3-0.9,1.6-2,1.6c-0.3,0-0.6,0-0.9-0.1v-1.2h0c0.4,0.1,0.8,0,1-0.2c0.1-0.2,0.1-0.5,0-1
				l-1.6-4.3h1.6l1.1,3.3h0l1-3.3h1.6L192.1,42.1z"/>
			<rect x="194.1" y="35" class="st0" width="1.6" height="7"/>
			<path class="st0" d="M196.2,35.7c0-0.5,0.3-0.7,0.8-0.7s0.8,0.2,0.8,0.7c0,0.5-0.3,0.7-0.8,0.7S196.2,36.2,196.2,35.7 M197.8,37
				v5h-1.6v-5L197.8,37z"/>
			<path class="st0" d="M203.3,38.7V42h-1.6v-2.9c0-0.8-0.3-1-0.8-1c-0.6,0-0.9,0.3-0.9,1V42h-1.6v-5h1.6v0.7h0
				c0.3-0.5,0.8-0.9,1.7-0.9C202.6,36.9,203.3,37.5,203.3,38.7"/>
			<polygon class="st0" points="205.4,35 205.4,38.7 206.8,37 208.7,37 206.9,38.9 208.9,42 207.1,42 205.9,40 205.4,40.6 205.4,42 
				203.8,42 203.8,35 			"/>
			<path class="st0" d="M124.2,20.3H122l0-2.9c0-0.5-0.4-1-1-1h-0.1c-0.5,0-1,0.4-1,1v13.9c0,0.5,0.4,1,1,1h0.1c0.5,0,1-0.4,1-1
				c0,0,0-4.9,0-9h0v0h2.2c0.5,0,1-0.4,1-1C125.2,20.7,124.7,20.3,124.2,20.3"/>
			<path class="st0" d="M130.8,20.3h-2.2l0-2.9c0-0.5-0.4-1-1-1h-0.1c-0.5,0-1,0.4-1,1v13.9c0,0.5,0.4,1,1,1h0.1c0.5,0,1-0.4,1-1
				c0,0,0-4.9,0-9h0v0h2.2c0.5,0,1-0.4,1-1C131.8,20.7,131.4,20.3,130.8,20.3"/>
			<path class="st0" d="M111.9,20.3c-1.7-0.1-2.5,0-3.3,0c-2.6,0-4,1.3-4.4,1.7l0-4.6c0-0.5-0.4-1-1-1c-0.5,0-1,0.4-1,1v8.9
				c0,3.7,2.6,6,6.2,6h3.6c4.8,0,6.5-3.1,6.5-6C118.5,23.7,117,20.5,111.9,20.3 M111.7,30.4h-2.9c-3.7,0-4.6-2.5-4.5-4.1
				c0-1.8,1-4.1,4.5-4.1h2.9c3.4,0,4.5,2.1,4.5,4.1C116.3,28.3,115.1,30.4,111.7,30.4"/>
			<path class="st0" d="M166.8,20.3h-3.1c-5.1,0-6.5,3.5-6.5,6c0,2.9,1.8,6,6.5,6h3.1c4.8,0,6.5-3.1,6.5-6
				C173.4,23.7,171.9,20.3,166.8,20.3 M166.7,30.4H164c-3.3,0-4.5-2.1-4.5-4.1c0-1.9,1.1-4.1,4.5-4.1h2.6c3.4,0,4.5,2.2,4.5,4.1
				C171.2,28.3,170,30.4,166.7,30.4"/>
			<path class="st0" d="M154.9,16.4h-0.5c-0.4,0-0.8,0.3-0.8,0.8v14.3c0,0.4,0.3,0.8,0.8,0.8h0.5c0.4,0,0.8-0.3,0.8-0.8V17.2
				C155.6,16.7,155.3,16.4,154.9,16.4"/>
			<path class="st0" d="M190.1,20.3c-0.6,0-1.1,0.5-1.1,1.1l0,5.1c0,1.9-1.2,3.8-4.5,3.8h-2.6c-3.3,0-4.5-1.9-4.5-3.8l0-5.1
				c0-0.6-0.5-1.1-1.1-1.1c-0.6,0-1.1,0.5-1.1,1.1v5.2c0.1,2.8,1.9,5.7,6.5,5.7h3.1c4.7,0,6.5-3.1,6.5-5.9v-5
				C191.2,20.8,190.7,20.3,190.1,20.3"/>
			<path class="st0" d="M192.6,26.3c0,2.9,1.8,6,6.5,6h3.6c3.6,0,6.2-2.3,6.2-6v-8.9c0-0.5-0.4-1-1-1c-0.5,0-1,0.4-1,1l0,4.6
				c-0.4-0.4-1.8-1.6-4.4-1.7c-0.8,0-1.7-0.1-3.3,0C194.1,20.5,192.6,23.7,192.6,26.3 M194.9,26.4c0-1.9,1.1-4.1,4.5-4.1h2.9
				c3.6,0,4.5,2.2,4.5,4.1c0.1,1.6-0.9,4.1-4.5,4.1h-2.9C196,30.4,194.9,28.3,194.9,26.4"/>
			<path class="st0" d="M151.9,30.4c-0.1-0.5-0.6-0.8-1.2-0.7c-0.2,0-0.5,0.2-1.4,0.4c-0.3,0.1-1,0.2-1.3,0.2c-0.8,0-2.1,0-2.9,0
				c-3.3,0-4.5-2.1-4.5-4.1c0-1.9,1.1-4,4.5-4.1c0.8,0,2,0,2.8,0c1.8,0.1,2.3,0.5,2.8,0.6c0.5,0.1,1-0.1,1.1-0.7l0,0
				c0.1-0.5-0.2-1-0.7-1.2c-0.4-0.1-1.6-0.5-2.9-0.6c-0.8-0.1-1.6-0.1-3.3,0c-5.1,0.2-6.5,3.4-6.5,6c0,2.9,1.8,5.9,6.5,6
				c0.9,0,2.6,0.1,3.5,0c1.2-0.1,2.4-0.4,2.8-0.6C151.6,31.4,152,31,151.9,30.4L151.9,30.4z"/>
			<path class="st0" d="M148.7,44.5H148v-6.7h0.7v0.6c0.5-0.6,1.2-0.7,1.5-0.7c1.3,0,2.1,1.1,2.1,2.3c0,1.2-0.8,2.2-2.1,2.2
				c-0.7,0-1.2-0.3-1.5-0.7V44.5z M151.5,40c0-1.1-0.7-1.6-1.4-1.6c-0.7,0-1.4,0.6-1.4,1.6c0,0.9,0.6,1.6,1.4,1.6
				C151,41.5,151.5,40.8,151.5,40"/>
			<path class="st0" d="M156.2,37.8h0.7v4.3h-0.7v-0.6c-0.2,0.3-0.7,0.7-1.5,0.7c-1.1,0-2.1-0.8-2.1-2.3c0-1.5,1-2.2,2.1-2.2
				c0.8,0,1.3,0.5,1.5,0.7V37.8z M153.4,39.9c0,0.9,0.5,1.6,1.4,1.6c0.9,0,1.4-0.8,1.4-1.6c0-1.1-0.8-1.6-1.4-1.6
				C154.1,38.4,153.4,38.9,153.4,39.9"/>
			<path class="st0" d="M157.9,37.8h0.7v0.5c0.1-0.1,0.4-0.6,1-0.6c0.2,0,0.5,0.1,0.7,0.2l-0.4,0.7c-0.2-0.1-0.3-0.1-0.4-0.1
				c-0.3,0-0.5,0.1-0.6,0.3c-0.1,0.2-0.2,0.5-0.2,1.2v2.3h-0.7V37.8z"/>
			<polygon class="st0" points="161.4,38.5 161.4,42.1 160.7,42.1 160.7,38.5 160.2,38.5 160.2,37.8 160.7,37.8 160.7,36.3 
				161.4,36.3 161.4,37.8 162.1,37.8 162.1,38.5 			"/>
			<path class="st0" d="M164,40c0-1.3,1-2.3,2.3-2.3s2.3,1,2.3,2.3c0,1.3-1,2.2-2.3,2.2C165,42.2,164,41.3,164,40 M164.8,40
				c0,1.1,0.7,1.6,1.5,1.6c0.8,0,1.5-0.5,1.5-1.6c0-1.1-0.7-1.6-1.5-1.6C165.5,38.4,164.8,38.9,164.8,40"/>
			<path class="st0" d="M169.9,38.5v3.6h-0.7v-3.6h-0.4v-0.7h0.4v-0.1c0-0.4,0-0.9,0.4-1.2c0.2-0.2,0.5-0.3,0.9-0.3
				c0.3,0,0.4,0.1,0.5,0.1V37c-0.2-0.1-0.3-0.1-0.5-0.1c-0.2,0-0.4,0-0.5,0.2c-0.1,0.2-0.1,0.4-0.1,0.6v0.1h1.1v0.7H169.9z"/>
		</g>
	</g>
</g>
</svg>
